<svg width="912" height="237" viewBox="0 0 912 237" fill="none" xmlns="http://www.w3.org/2000/svg">
<g clip-path="url(#clip0_230_8587)">
<path d="M4.18826 234.309V0.385156H51.0373V90.5535C61.6265 75.1511 79.9168 65.2037 102.379 65.2037C139.28 65.2037 163.668 88.9491 163.668 125.53V234.309H116.818V137.723C116.818 119.433 105.267 106.919 87.618 106.919C63.8726 106.919 51.0373 126.492 51.0373 161.469V234.309H4.18826ZM235.809 236.877C201.474 236.877 177.087 216.019 177.087 188.423C177.087 158.581 197.944 140.611 235.809 135.798L266.614 131.627C274.315 130.343 278.486 125.851 278.486 119.433C278.486 109.486 268.218 100.822 251.211 100.822C235.809 100.822 222.973 109.486 222.332 124.567H177.087C181.258 88.3073 208.534 65.2037 251.211 65.2037C297.098 65.2037 325.656 91.1953 325.656 133.552V183.289C325.656 191.632 328.544 196.766 335.604 196.766C337.529 196.766 339.454 196.445 341.059 196.124V234.309C336.566 235.272 327.902 236.556 318.276 236.556C300.948 236.556 288.434 228.854 285.867 215.056C279.128 228.534 260.196 236.877 235.809 236.877ZM244.152 202.221C266.614 202.221 280.091 184.572 280.091 164.036V160.506L243.831 166.603C230.033 168.849 223.294 175.588 223.294 185.856C223.294 194.841 230.995 202.221 244.152 202.221ZM455.581 110.769C450.447 109.807 445.313 109.165 440.179 109.165C418.359 109.165 396.539 126.172 396.539 173.983V234.309H349.69V67.7707H396.539V96.6503C404.24 78.6808 426.06 65.2037 445.955 65.2037C449.485 65.2037 452.373 65.2037 455.581 65.8454V110.769ZM465.409 234.309V67.7707H512.258V234.309H465.409ZM464.125 46.9133V1.02692H514.183V46.9133H464.125ZM532.19 186.819H581.927V234.309H532.19V186.819ZM665.76 236.877C622.441 236.877 593.241 212.489 591.636 175.588H634.314C635.276 187.14 647.791 199.654 665.76 199.654C679.879 199.654 690.148 193.878 690.148 184.572C690.148 177.513 684.372 172.7 674.103 170.454L649.716 165.64C624.687 160.506 599.337 148.313 599.337 113.336C599.337 87.6656 622.762 65.2037 661.91 65.2037C698.17 65.2037 727.37 84.7776 731.542 119.112H688.864C686.939 106.277 673.462 100.18 661.91 100.18C651 100.18 642.657 104.993 642.657 113.336C642.657 120.717 649.395 125.209 659.343 127.134L683.73 131.948C711.326 137.082 734.75 147.992 734.75 183.61C734.75 212.168 707.154 236.877 665.76 236.877ZM748.639 234.309V0.385156H795.488V90.5535C806.077 75.1511 824.367 65.2037 846.829 65.2037C883.731 65.2037 908.118 88.9491 908.118 125.53V234.309H861.269V137.723C861.269 119.433 849.717 106.919 832.068 106.919C808.323 106.919 795.488 126.492 795.488 161.469V234.309H748.639Z" fill="white" fill-opacity="0.1"/>
</g>
<defs>
<clipPath id="clip0_230_8587">
<rect width="912" height="236.502" fill="white"/>
</clipPath>
</defs>
</svg>
